<svg xmlns="http://www.w3.org/2000/svg" width="220" height="220" viewBox="0 0 220 220">
  <g id="그룹_12" data-name="그룹 12" transform="translate(-883 -552)">
    <g id="그룹_10" data-name="그룹 10" transform="translate(-40 212)">
      <rect id="사각형_4" data-name="사각형 4" width="220" height="220" transform="translate(923 340)" fill="none"/>
    </g>
    <g id="그룹_11" data-name="그룹 11" transform="translate(-1.104 447.725)">
      <circle id="타원_1" data-name="타원 1" cx="30.666" cy="30.666" r="30.666" transform="translate(952.773 200.417) rotate(-26.611)" fill="#f8ca4d"/>
      <g id="그룹_1" data-name="그룹 1">
        <path id="패스_2" data-name="패스 2" d="M993.927,171.781h0a3.676,3.676,0,0,1-3.676-3.676V141.951a3.676,3.676,0,0,1,3.676-3.676h0a3.676,3.676,0,0,1,3.677,3.676V168.1A3.676,3.676,0,0,1,993.927,171.781Z" fill="#f8ca4d"/>
        <path id="패스_3" data-name="패스 3" d="M993.927,289.922h0a3.676,3.676,0,0,1-3.676-3.676V260.092a3.676,3.676,0,0,1,3.676-3.677h0a3.677,3.677,0,0,1,3.677,3.677v26.154A3.676,3.676,0,0,1,993.927,289.922Z" fill="#f8ca4d"/>
      </g>
      <g id="그룹_2" data-name="그룹 2">
        <path id="패스_4" data-name="패스 4" d="M1023.85,184.175h0a3.676,3.676,0,0,1,0-5.2l18.494-18.494a3.676,3.676,0,0,1,5.2,0h0a3.677,3.677,0,0,1,0,5.2l-18.494,18.493A3.676,3.676,0,0,1,1023.85,184.175Z" fill="#f8ca4d"/>
        <path id="패스_5" data-name="패스 5" d="M940.312,267.714h0a3.676,3.676,0,0,1,0-5.2l18.494-18.494a3.676,3.676,0,0,1,5.2,0h0a3.677,3.677,0,0,1,0,5.2l-18.494,18.494A3.677,3.677,0,0,1,940.312,267.714Z" fill="#f8ca4d"/>
      </g>
      <g id="그룹_3" data-name="그룹 3">
        <path id="패스_6" data-name="패스 6" d="M1036.245,214.1h0a3.676,3.676,0,0,1,3.676-3.676h26.154a3.676,3.676,0,0,1,3.676,3.676h0a3.676,3.676,0,0,1-3.676,3.676h-26.154A3.675,3.675,0,0,1,1036.245,214.1Z" fill="#f8ca4d"/>
        <path id="패스_7" data-name="패스 7" d="M918.1,214.1h0a3.676,3.676,0,0,1,3.676-3.676h26.154a3.676,3.676,0,0,1,3.676,3.676h0a3.676,3.676,0,0,1-3.676,3.676H921.78A3.676,3.676,0,0,1,918.1,214.1Z" fill="#f8ca4d"/>
      </g>
      <g id="그룹_4" data-name="그룹 4">
        <path id="패스_8" data-name="패스 8" d="M1023.85,244.021h0a3.676,3.676,0,0,1,5.2,0l18.494,18.494a3.677,3.677,0,0,1,0,5.2h0a3.677,3.677,0,0,1-5.2,0L1023.85,249.22A3.677,3.677,0,0,1,1023.85,244.021Z" fill="#f8ca4d"/>
        <path id="패스_9" data-name="패스 9" d="M940.312,160.483h0a3.676,3.676,0,0,1,5.2,0l18.494,18.494a3.676,3.676,0,0,1,0,5.2h0a3.676,3.676,0,0,1-5.2,0l-18.494-18.493A3.676,3.676,0,0,1,940.312,160.483Z" fill="#f8ca4d"/>
      </g>
    </g>
  </g>
</svg>
