<svg xmlns="http://www.w3.org/2000/svg" width="220" height="220" viewBox="0 0 220 220">
  <g id="그룹_19" data-name="그룹 19" transform="translate(-883 -552)">
    <g id="그룹_16" data-name="그룹 16">
      <g id="그룹_14" data-name="그룹 14">
        <g id="그룹_12" data-name="그룹 12">
          <g id="그룹_10" data-name="그룹 10" transform="translate(-40 212)">
            <rect id="사각형_4" data-name="사각형 4" width="220" height="220" transform="translate(923 340)" fill="none"/>
          </g>
        </g>
      </g>
    </g>
    <g id="그룹_18" data-name="그룹 18" transform="translate(277.272 -102.344)">
      <path id="패스_17" data-name="패스 17" d="M770.452,776.1c-.084,0-.161.024-.245.025a29.315,29.315,0,0,0-42.512-36.47,40.781,40.781,0,0,0-78.25,20.54c-.114,0-.225-.017-.34-.017a27.376,27.376,0,1,0,0,54.753H770.452a19.415,19.415,0,1,0,0-38.831Z" fill="#efefef"/>
      <path id="패스_18" data-name="패스 18" d="M755.358,721.077H693.3a3.366,3.366,0,0,1-3.366-3.367h0a3.366,3.366,0,0,1,3.366-3.366h62.056a3.366,3.366,0,0,1,3.366,3.366h0a3.366,3.366,0,0,1-3.364,3.367Z" fill="#efefef"/>
      <path id="패스_19" data-name="패스 19" d="M805.586,721.077H769.579a3.366,3.366,0,0,1-3.367-3.367h0a3.366,3.366,0,0,1,3.367-3.366h36.007a3.366,3.366,0,0,1,3.366,3.366h0a3.366,3.366,0,0,1-3.366,3.367Z" fill="#efefef"/>
      <path id="패스_20" data-name="패스 20" d="M780.841,741.892H743.716a3.366,3.366,0,0,1-3.366-3.367h0a3.366,3.366,0,0,1,3.366-3.366h37.125a3.366,3.366,0,0,1,3.366,3.366h0a3.366,3.366,0,0,1-3.366,3.367Z" fill="#efefef"/>
      <path id="패스_21" data-name="패스 21" d="M805.4,741.892h-9.848a3.366,3.366,0,0,1-3.366-3.367h0a3.366,3.366,0,0,1,3.366-3.366H805.4a3.366,3.366,0,0,1,3.366,3.366h0a3.366,3.366,0,0,1-3.366,3.367Z" fill="#efefef"/>
      <path id="패스_22" data-name="패스 22" d="M805.4,782.6H743.716a3.366,3.366,0,0,1-3.366-3.367h0a3.366,3.366,0,0,1,3.366-3.366H805.4a3.366,3.366,0,0,1,3.366,3.366h0A3.366,3.366,0,0,1,805.4,782.6Z" fill="#efefef"/>
      <path id="패스_23" data-name="패스 23" d="M805.4,814.934H743.716a3.367,3.367,0,0,1-3.366-3.367h0a3.367,3.367,0,0,1,3.366-3.367H805.4a3.367,3.367,0,0,1,3.366,3.367h0A3.367,3.367,0,0,1,805.4,814.934Z" fill="#efefef"/>
    </g>
  </g>
</svg>
