<svg xmlns="http://www.w3.org/2000/svg" width="220" height="220" viewBox="0 0 220 220">
  <g id="그룹_16" data-name="그룹 16" transform="translate(-883 -552)">
    <g id="그룹_14" data-name="그룹 14">
      <g id="그룹_12" data-name="그룹 12">
        <g id="그룹_10" data-name="그룹 10" transform="translate(-40 212)">
          <rect id="사각형_4" data-name="사각형 4" width="220" height="220" transform="translate(923 340)" fill="none"/>
        </g>
      </g>
    </g>
    <g id="그룹_15" data-name="그룹 15" transform="translate(834.903 147.998)">
      <path id="패스_17" data-name="패스 17" d="M222.82,497.761c-.084,0-.161.024-.245.025a29.315,29.315,0,0,0-42.511-36.47,40.781,40.781,0,0,0-78.251,20.54c-.114,0-.225-.017-.34-.017a27.376,27.376,0,1,0,0,54.753H222.82a19.415,19.415,0,1,0,0-38.831Z" fill="#efefef"/>
      <path id="패스_18" data-name="패스 18" d="M127.9,584.427a13.784,13.784,0,1,1-24.847-11.943c3.3-6.861,24.626-19.415,24.626-19.415S131.2,577.566,127.9,584.427Z" fill="#b9d7ff"/>
      <path id="패스_19" data-name="패스 19" d="M162.175,584.427a13.784,13.784,0,1,1-24.846-11.943c3.3-6.861,24.626-19.415,24.626-19.415S165.473,577.566,162.175,584.427Z" fill="#b9d7ff"/>
      <path id="패스_20" data-name="패스 20" d="M196.935,584.427a13.784,13.784,0,1,1-24.847-11.943c3.3-6.861,24.626-19.415,24.626-19.415S200.233,577.566,196.935,584.427Z" fill="#b9d7ff"/>
    </g>
  </g>
</svg>
