<svg xmlns="http://www.w3.org/2000/svg" width="220" height="220" viewBox="0 0 220 220">
  <g id="그룹_17" data-name="그룹 17" transform="translate(-1323 -540)">
    <rect id="사각형_2" data-name="사각형 2" width="220" height="220" transform="translate(1323 540)" fill="none"/>
    <g id="그룹_6" data-name="그룹 6" transform="translate(439.142 119.986)">
      <path id="패스_10" data-name="패스 10" d="M1058.582,497.774c-.084,0-.161.023-.245.024a29.315,29.315,0,0,0-42.512-36.47,40.781,40.781,0,0,0-78.25,20.54c-.115,0-.225-.017-.34-.017a27.376,27.376,0,1,0,0,54.753h121.347a19.415,19.415,0,0,0,0-38.83Z" fill="#b9d7ff"/>
      <path id="패스_11" data-name="패스 11" d="M946.268,584.439A13.784,13.784,0,1,1,921.422,572.5c3.3-6.861,24.626-19.415,24.626-19.415S949.566,577.578,946.268,584.439Z" fill="#b9d7ff"/>
      <path id="패스_12" data-name="패스 12" d="M1066.386,584.439A13.784,13.784,0,1,1,1041.54,572.5c3.3-6.861,24.626-19.415,24.626-19.415S1069.684,577.578,1066.386,584.439Z" fill="#b9d7ff"/>
      <path id="패스_13" data-name="패스 13" d="M983.047,548.337l-12.489,38.034h17.22l-11.164,38.6,40.683-54.5h-21l7.947-22.139Z" fill="#ffdc7b"/>
    </g>
  </g>
</svg>
